<mxfile host="app.diagrams.net" modified="2022-06-15T08:41:37.935Z" agent="5.0 (Macintosh; Intel Mac OS X 10_15_7) AppleWebKit/537.36 (KHTML, like Gecko) Chrome/102.0.0.0 Safari/537.36" etag="URmb0ZxDwDqbLmrAiRBU" version="20.0.1" type="github">
  <diagram id="C5RBs43oDa-KdzZeNtuy" name="Page-1">
    <mxGraphModel dx="2493" dy="826" grid="1" gridSize="10" guides="1" tooltips="1" connect="1" arrows="1" fold="1" page="1" pageScale="1" pageWidth="827" pageHeight="1169" math="0" shadow="0">
      <root>
        <mxCell id="WIyWlLk6GJQsqaUBKTNV-0" />
        <mxCell id="WIyWlLk6GJQsqaUBKTNV-1" parent="WIyWlLk6GJQsqaUBKTNV-0" />
        <mxCell id="WIyWlLk6GJQsqaUBKTNV-2" value="" style="rounded=0;html=1;jettySize=auto;orthogonalLoop=1;fontSize=11;endArrow=block;endFill=0;endSize=8;strokeWidth=1;shadow=0;labelBackgroundColor=none;edgeStyle=orthogonalEdgeStyle;" parent="WIyWlLk6GJQsqaUBKTNV-1" source="WIyWlLk6GJQsqaUBKTNV-3" edge="1">
          <mxGeometry relative="1" as="geometry">
            <mxPoint x="220" y="200" as="targetPoint" />
          </mxGeometry>
        </mxCell>
        <mxCell id="WIyWlLk6GJQsqaUBKTNV-3" value="Start" style="rounded=1;whiteSpace=wrap;html=1;fontSize=12;glass=0;strokeWidth=1;shadow=0;" parent="WIyWlLk6GJQsqaUBKTNV-1" vertex="1">
          <mxGeometry x="160" y="80" width="120" height="40" as="geometry" />
        </mxCell>
        <mxCell id="k7J0_VozWrvOWSV-aAC--0" value="Print Logo" style="rounded=0;whiteSpace=wrap;html=1;" vertex="1" parent="WIyWlLk6GJQsqaUBKTNV-1">
          <mxGeometry x="150" y="320" width="120" height="20" as="geometry" />
        </mxCell>
        <mxCell id="k7J0_VozWrvOWSV-aAC--1" value="" style="endArrow=classic;html=1;rounded=0;exitX=0.5;exitY=1;exitDx=0;exitDy=0;" edge="1" parent="WIyWlLk6GJQsqaUBKTNV-1" source="k7J0_VozWrvOWSV-aAC--0">
          <mxGeometry width="50" height="50" relative="1" as="geometry">
            <mxPoint x="390" y="450" as="sourcePoint" />
            <mxPoint x="210" y="380" as="targetPoint" />
          </mxGeometry>
        </mxCell>
        <mxCell id="k7J0_VozWrvOWSV-aAC--2" value="Input to play or not: y or n" style="rounded=0;whiteSpace=wrap;html=1;" vertex="1" parent="WIyWlLk6GJQsqaUBKTNV-1">
          <mxGeometry x="170" y="200" width="120" height="30" as="geometry" />
        </mxCell>
        <mxCell id="k7J0_VozWrvOWSV-aAC--3" value="" style="endArrow=classic;html=1;rounded=0;exitX=0.5;exitY=1;exitDx=0;exitDy=0;" edge="1" parent="WIyWlLk6GJQsqaUBKTNV-1" source="k7J0_VozWrvOWSV-aAC--2">
          <mxGeometry width="50" height="50" relative="1" as="geometry">
            <mxPoint x="390" y="440" as="sourcePoint" />
            <mxPoint x="230" y="320" as="targetPoint" />
          </mxGeometry>
        </mxCell>
        <mxCell id="k7J0_VozWrvOWSV-aAC--4" value="y" style="text;html=1;align=center;verticalAlign=middle;resizable=0;points=[];autosize=1;strokeColor=none;fillColor=none;" vertex="1" parent="WIyWlLk6GJQsqaUBKTNV-1">
          <mxGeometry x="210" y="260" width="20" height="20" as="geometry" />
        </mxCell>
        <mxCell id="k7J0_VozWrvOWSV-aAC--5" value="" style="endArrow=classic;html=1;rounded=0;exitX=1;exitY=0.5;exitDx=0;exitDy=0;entryX=0;entryY=0;entryDx=0;entryDy=0;" edge="1" parent="WIyWlLk6GJQsqaUBKTNV-1" source="k7J0_VozWrvOWSV-aAC--2" target="k7J0_VozWrvOWSV-aAC--7">
          <mxGeometry width="50" height="50" relative="1" as="geometry">
            <mxPoint x="390" y="440" as="sourcePoint" />
            <mxPoint x="320" y="215" as="targetPoint" />
            <Array as="points">
              <mxPoint x="430" y="190" />
            </Array>
          </mxGeometry>
        </mxCell>
        <mxCell id="k7J0_VozWrvOWSV-aAC--6" value="n" style="text;html=1;align=center;verticalAlign=middle;resizable=0;points=[];autosize=1;strokeColor=none;fillColor=none;" vertex="1" parent="WIyWlLk6GJQsqaUBKTNV-1">
          <mxGeometry x="290" y="190" width="20" height="20" as="geometry" />
        </mxCell>
        <mxCell id="k7J0_VozWrvOWSV-aAC--7" value="Program exits" style="rounded=1;whiteSpace=wrap;html=1;" vertex="1" parent="WIyWlLk6GJQsqaUBKTNV-1">
          <mxGeometry x="670" y="185" width="120" height="15" as="geometry" />
        </mxCell>
        <mxCell id="k7J0_VozWrvOWSV-aAC--9" value="Prints out your cards: [x, y], current score: x + y&lt;br&gt;" style="rounded=0;whiteSpace=wrap;html=1;" vertex="1" parent="WIyWlLk6GJQsqaUBKTNV-1">
          <mxGeometry x="150" y="380" width="120" height="60" as="geometry" />
        </mxCell>
        <mxCell id="k7J0_VozWrvOWSV-aAC--14" value="" style="edgeStyle=orthogonalEdgeStyle;rounded=0;orthogonalLoop=1;jettySize=auto;html=1;exitX=1;exitY=0.75;exitDx=0;exitDy=0;entryX=0.5;entryY=0;entryDx=0;entryDy=0;" edge="1" parent="WIyWlLk6GJQsqaUBKTNV-1" source="k7J0_VozWrvOWSV-aAC--0" target="k7J0_VozWrvOWSV-aAC--10">
          <mxGeometry relative="1" as="geometry" />
        </mxCell>
        <mxCell id="k7J0_VozWrvOWSV-aAC--36" value="" style="edgeStyle=orthogonalEdgeStyle;rounded=0;orthogonalLoop=1;jettySize=auto;html=1;entryX=-0.025;entryY=0.65;entryDx=0;entryDy=0;entryPerimeter=0;" edge="1" parent="WIyWlLk6GJQsqaUBKTNV-1" source="k7J0_VozWrvOWSV-aAC--10" target="k7J0_VozWrvOWSV-aAC--23">
          <mxGeometry relative="1" as="geometry">
            <mxPoint x="70" y="780" as="targetPoint" />
            <Array as="points">
              <mxPoint x="280" y="410" />
              <mxPoint x="280" y="470" />
              <mxPoint x="80" y="470" />
              <mxPoint x="80" y="780" />
            </Array>
          </mxGeometry>
        </mxCell>
        <mxCell id="k7J0_VozWrvOWSV-aAC--41" value="" style="edgeStyle=orthogonalEdgeStyle;rounded=0;orthogonalLoop=1;jettySize=auto;html=1;" edge="1" parent="WIyWlLk6GJQsqaUBKTNV-1" source="k7J0_VozWrvOWSV-aAC--10" target="k7J0_VozWrvOWSV-aAC--17">
          <mxGeometry relative="1" as="geometry" />
        </mxCell>
        <mxCell id="k7J0_VozWrvOWSV-aAC--10" value="Prints out computer&#39;s first card, second card not printed" style="rounded=0;whiteSpace=wrap;html=1;" vertex="1" parent="WIyWlLk6GJQsqaUBKTNV-1">
          <mxGeometry x="300" y="380" width="120" height="60" as="geometry" />
        </mxCell>
        <mxCell id="k7J0_VozWrvOWSV-aAC--11" value="" style="endArrow=classic;html=1;rounded=0;exitX=0.5;exitY=1;exitDx=0;exitDy=0;" edge="1" parent="WIyWlLk6GJQsqaUBKTNV-1" source="k7J0_VozWrvOWSV-aAC--9">
          <mxGeometry width="50" height="50" relative="1" as="geometry">
            <mxPoint x="390" y="420" as="sourcePoint" />
            <mxPoint x="210" y="500" as="targetPoint" />
          </mxGeometry>
        </mxCell>
        <mxCell id="k7J0_VozWrvOWSV-aAC--12" value="If x or y is 11 and x + y &amp;gt; 21, x or y = 1" style="text;html=1;align=center;verticalAlign=middle;resizable=0;points=[];autosize=1;strokeColor=none;fillColor=none;" vertex="1" parent="WIyWlLk6GJQsqaUBKTNV-1">
          <mxGeometry x="-20" y="450" width="220" height="20" as="geometry" />
        </mxCell>
        <mxCell id="k7J0_VozWrvOWSV-aAC--17" value="Input to get another card: y or n" style="rounded=0;whiteSpace=wrap;html=1;" vertex="1" parent="WIyWlLk6GJQsqaUBKTNV-1">
          <mxGeometry x="150" y="500" width="270" height="60" as="geometry" />
        </mxCell>
        <mxCell id="k7J0_VozWrvOWSV-aAC--24" value="" style="edgeStyle=orthogonalEdgeStyle;rounded=0;orthogonalLoop=1;jettySize=auto;html=1;" edge="1" parent="WIyWlLk6GJQsqaUBKTNV-1" source="k7J0_VozWrvOWSV-aAC--18" target="k7J0_VozWrvOWSV-aAC--23">
          <mxGeometry relative="1" as="geometry" />
        </mxCell>
        <mxCell id="k7J0_VozWrvOWSV-aAC--27" value="" style="edgeStyle=orthogonalEdgeStyle;rounded=0;orthogonalLoop=1;jettySize=auto;html=1;" edge="1" parent="WIyWlLk6GJQsqaUBKTNV-1" source="k7J0_VozWrvOWSV-aAC--18" target="k7J0_VozWrvOWSV-aAC--26">
          <mxGeometry relative="1" as="geometry" />
        </mxCell>
        <mxCell id="k7J0_VozWrvOWSV-aAC--18" value="Randomly select a card from the deck, add to current score" style="rounded=0;whiteSpace=wrap;html=1;" vertex="1" parent="WIyWlLk6GJQsqaUBKTNV-1">
          <mxGeometry x="150" y="600" width="120" height="60" as="geometry" />
        </mxCell>
        <mxCell id="k7J0_VozWrvOWSV-aAC--19" value="" style="endArrow=classic;html=1;rounded=0;exitX=0.25;exitY=1;exitDx=0;exitDy=0;entryX=0.563;entryY=0;entryDx=0;entryDy=0;entryPerimeter=0;" edge="1" parent="WIyWlLk6GJQsqaUBKTNV-1" source="k7J0_VozWrvOWSV-aAC--17" target="k7J0_VozWrvOWSV-aAC--18">
          <mxGeometry width="50" height="50" relative="1" as="geometry">
            <mxPoint x="390" y="400" as="sourcePoint" />
            <mxPoint x="440" y="350" as="targetPoint" />
          </mxGeometry>
        </mxCell>
        <mxCell id="k7J0_VozWrvOWSV-aAC--20" value="y" style="text;html=1;align=center;verticalAlign=middle;resizable=0;points=[];autosize=1;strokeColor=none;fillColor=none;" vertex="1" parent="WIyWlLk6GJQsqaUBKTNV-1">
          <mxGeometry x="170" y="570" width="20" height="20" as="geometry" />
        </mxCell>
        <mxCell id="k7J0_VozWrvOWSV-aAC--38" value="" style="edgeStyle=orthogonalEdgeStyle;rounded=0;orthogonalLoop=1;jettySize=auto;html=1;entryX=0;entryY=0.5;entryDx=0;entryDy=0;" edge="1" parent="WIyWlLk6GJQsqaUBKTNV-1" source="k7J0_VozWrvOWSV-aAC--23" target="k7J0_VozWrvOWSV-aAC--2">
          <mxGeometry relative="1" as="geometry">
            <mxPoint x="10" y="200" as="targetPoint" />
            <Array as="points">
              <mxPoint x="210" y="820" />
              <mxPoint x="-20" y="820" />
              <mxPoint x="-20" y="215" />
            </Array>
          </mxGeometry>
        </mxCell>
        <mxCell id="k7J0_VozWrvOWSV-aAC--23" value="You lose" style="rounded=0;whiteSpace=wrap;html=1;" vertex="1" parent="WIyWlLk6GJQsqaUBKTNV-1">
          <mxGeometry x="150" y="740" width="120" height="60" as="geometry" />
        </mxCell>
        <mxCell id="k7J0_VozWrvOWSV-aAC--25" value="current score: &amp;gt;21" style="text;html=1;align=center;verticalAlign=middle;resizable=0;points=[];autosize=1;strokeColor=none;fillColor=none;" vertex="1" parent="WIyWlLk6GJQsqaUBKTNV-1">
          <mxGeometry x="175" y="690" width="110" height="20" as="geometry" />
        </mxCell>
        <mxCell id="k7J0_VozWrvOWSV-aAC--29" value="" style="edgeStyle=orthogonalEdgeStyle;rounded=0;orthogonalLoop=1;jettySize=auto;html=1;" edge="1" parent="WIyWlLk6GJQsqaUBKTNV-1" source="k7J0_VozWrvOWSV-aAC--26" target="k7J0_VozWrvOWSV-aAC--28">
          <mxGeometry relative="1" as="geometry" />
        </mxCell>
        <mxCell id="k7J0_VozWrvOWSV-aAC--26" value="Computer reveals 2nd card" style="rounded=0;whiteSpace=wrap;html=1;" vertex="1" parent="WIyWlLk6GJQsqaUBKTNV-1">
          <mxGeometry x="320" y="600" width="120" height="60" as="geometry" />
        </mxCell>
        <mxCell id="k7J0_VozWrvOWSV-aAC--32" value="" style="edgeStyle=orthogonalEdgeStyle;rounded=0;orthogonalLoop=1;jettySize=auto;html=1;" edge="1" parent="WIyWlLk6GJQsqaUBKTNV-1" source="k7J0_VozWrvOWSV-aAC--28" target="k7J0_VozWrvOWSV-aAC--31">
          <mxGeometry relative="1" as="geometry" />
        </mxCell>
        <mxCell id="k7J0_VozWrvOWSV-aAC--34" value="" style="edgeStyle=orthogonalEdgeStyle;rounded=0;orthogonalLoop=1;jettySize=auto;html=1;" edge="1" parent="WIyWlLk6GJQsqaUBKTNV-1" source="k7J0_VozWrvOWSV-aAC--28" target="k7J0_VozWrvOWSV-aAC--23">
          <mxGeometry relative="1" as="geometry" />
        </mxCell>
        <mxCell id="k7J0_VozWrvOWSV-aAC--28" value="Randomly selects a card from the deck, adds to current score" style="rounded=0;whiteSpace=wrap;html=1;" vertex="1" parent="WIyWlLk6GJQsqaUBKTNV-1">
          <mxGeometry x="320" y="740" width="120" height="60" as="geometry" />
        </mxCell>
        <mxCell id="k7J0_VozWrvOWSV-aAC--30" value="&amp;lt; 17" style="text;html=1;align=center;verticalAlign=middle;resizable=0;points=[];autosize=1;strokeColor=none;fillColor=none;" vertex="1" parent="WIyWlLk6GJQsqaUBKTNV-1">
          <mxGeometry x="390" y="680" width="40" height="20" as="geometry" />
        </mxCell>
        <mxCell id="k7J0_VozWrvOWSV-aAC--40" value="" style="edgeStyle=orthogonalEdgeStyle;rounded=0;orthogonalLoop=1;jettySize=auto;html=1;" edge="1" parent="WIyWlLk6GJQsqaUBKTNV-1" source="k7J0_VozWrvOWSV-aAC--31">
          <mxGeometry relative="1" as="geometry">
            <mxPoint x="-20" y="820" as="targetPoint" />
          </mxGeometry>
        </mxCell>
        <mxCell id="k7J0_VozWrvOWSV-aAC--31" value="You win" style="rounded=0;whiteSpace=wrap;html=1;" vertex="1" parent="WIyWlLk6GJQsqaUBKTNV-1">
          <mxGeometry x="320" y="880" width="120" height="60" as="geometry" />
        </mxCell>
        <mxCell id="k7J0_VozWrvOWSV-aAC--33" value="Com score: &amp;gt; 21 or less than current score" style="text;html=1;align=center;verticalAlign=middle;resizable=0;points=[];autosize=1;strokeColor=none;fillColor=none;" vertex="1" parent="WIyWlLk6GJQsqaUBKTNV-1">
          <mxGeometry x="130" y="830" width="240" height="20" as="geometry" />
        </mxCell>
        <mxCell id="k7J0_VozWrvOWSV-aAC--35" value="If com score &amp;gt; current score" style="text;html=1;align=center;verticalAlign=middle;resizable=0;points=[];autosize=1;strokeColor=none;fillColor=none;" vertex="1" parent="WIyWlLk6GJQsqaUBKTNV-1">
          <mxGeometry x="220" y="720" width="160" height="20" as="geometry" />
        </mxCell>
        <mxCell id="k7J0_VozWrvOWSV-aAC--37" value="If com score = 21&lt;br&gt;com: blackjack" style="text;html=1;align=center;verticalAlign=middle;resizable=0;points=[];autosize=1;" vertex="1" parent="WIyWlLk6GJQsqaUBKTNV-1">
          <mxGeometry x="9" y="702" width="110" height="30" as="geometry" />
        </mxCell>
      </root>
    </mxGraphModel>
  </diagram>
</mxfile>
